<?xml version="1.0" encoding="iso-8859-1"?>
<!-- Generator: Adobe Illustrator 19.0.0, SVG Export Plug-In . SVG Version: 6.00 Build 0)  -->
<svg version="1.1" id="Layer_1" xmlns="http://www.w3.org/2000/svg" xmlns:xlink="http://www.w3.org/1999/xlink" x="0px" y="0px"
	 viewBox="0 0 504 504" style="enable-background:new 0 0 504 504;" xml:space="preserve">
<path style="fill:#F4EFEF;" d="M347.8,4h-276c-8,0-18,8.4-18,16v464c0,7.6,10.4,16,18,16h364.8c7.6,0,13.2-8,13.2-16V108L347.8,4z"
	/>
<path style="fill:#D8D8D8;" d="M345.8,8.4V10v71.2c0,13.6,15.2,26.8,28.8,26.8H447L345.8,8.4z"/>
<path d="M409.8,204h-212c-2.4,0-4-1.6-4-4s1.6-4,4-4h212c2.4,0,4,1.6,4,4S411.8,204,409.8,204z"/>
<path d="M245.8,268h-48c-2.4,0-4-1.6-4-4s1.6-4,4-4h48c2.4,0,4,1.6,4,4S247.8,268,245.8,268z"/>
<path d="M409.8,268h-128c-2.4,0-4-1.6-4-4s1.6-4,4-4h128c2.4,0,4,1.6,4,4S411.8,268,409.8,268z"/>
<path d="M409.8,396h-48c-2.4,0-4-1.6-4-4s1.6-4,4-4h48c2.4,0,4,1.6,4,4S411.8,396,409.8,396z"/>
<path d="M325.8,396h-128c-2.4,0-4-1.6-4-4s1.6-4,4-4h128c2.4,0,4,1.6,4,4S327.8,396,325.8,396z"/>
<path d="M409.8,332h-212c-2.4,0-4-1.6-4-4s1.6-4,4-4h212c2.4,0,4,1.6,4,4S411.8,332,409.8,332z"/>
<path d="M127.8,212.4c-1.2,0-2-0.4-2.8-1.2l-19.6-19.6c-1.6-1.6-1.6-4,0-5.6s4-1.6,5.6,0l16.8,16.8l33.2-33.2c1.6-1.6,4-1.6,5.6,0
	s1.6,4,0,5.6l-36,36C129.8,211.6,128.6,212.4,127.8,212.4z"/>
<path d="M127.8,276c-1.2,0-2-0.4-2.8-1.2l-19.6-19.6c-1.6-1.6-1.6-4,0-5.6s4-1.6,5.6,0l16.8,16.8l33.2-33.2c1.6-1.6,4-1.6,5.6,0
	s1.6,4,0,5.6l-36,36C129.8,275.6,128.6,276,127.8,276z"/>
<path d="M127.8,340c-1.2,0-2-0.4-2.8-1.2l-19.6-19.6c-1.6-1.6-1.6-4,0-5.6s4-1.6,5.6,0l16.8,16.8l33.2-33.2c1.6-1.6,4-1.6,5.6,0
	s1.6,4,0,5.6l-36,36C129.8,339.6,128.6,340,127.8,340z"/>
<path d="M127.8,404c-1.2,0-2-0.4-2.8-1.2l-19.6-19.6c-1.6-1.6-1.6-4,0-5.6s4-1.6,5.6,0l16.8,16.8l33.2-33.2c1.6-1.6,4-1.6,5.6,0
	s1.6,4,0,5.6l-36,36C129.8,403.6,128.6,404,127.8,404z"/>
<path d="M431.8,504H71c-10.8,0-19.2-8.8-19.2-20V20C51.8,8.8,60.2,0,71,0h272c1.2,0,2,0.4,2.8,1.2l105.2,104
	c0.8,0.8,1.2,1.6,1.2,2.8v376C452.2,495.2,443,504,431.8,504z M71,8c-6.4,0-11.2,5.2-11.2,12v464c0,6.8,4.8,12,11.2,12h360.8
	c6.8,0,12.4-5.6,12.4-12V109.6L341.4,8H71z"/>
<path d="M412.2,112h-38.4c-16.8,0-33.6-17.6-33.6-34.8V8c0-2.4,1.6-4,4-4s4,1.6,4,4v69.2c0,12.8,13.6,26.8,25.6,26.8h38.4
	c2.4,0,4,1.6,4,4S414.6,112,412.2,112z"/>
<g>
</g>
<g>
</g>
<g>
</g>
<g>
</g>
<g>
</g>
<g>
</g>
<g>
</g>
<g>
</g>
<g>
</g>
<g>
</g>
<g>
</g>
<g>
</g>
<g>
</g>
<g>
</g>
<g>
</g>
</svg>
